<?xml version="1.0" encoding="utf-8"?>
<svg viewBox="0 0 72 72" xmlns="http://www.w3.org/2000/svg" xmlns:bx="https://boxy-svg.com">
  <defs>
    <path id="path-0" style="fill: none;" d="M 47.53260659996664 57.43069903387464 L 65.65698262579677 59.361993365180275"/>

    <path id="path-1" d="M 49.41418979787795 52.646290516165074 L 63.37555321915228 52.569997163413184" style="fill: none;"/>
  </defs>
  <g transform="matrix(1, 0, 0, 1, -18.500734, -6.957537)">
    <title>Head</title>
    <path style="fill: rgb(253, 184, 120);" d="M 48.98 42.72 L 49.55 39.41 C 47.09 38.04 43.79 32.46 44.27 32.47 C 43.24 34.16 39.54 24.84 43.08 25.32 C 43.08 25.32 43.14 21.03 45.82 19.12 C 51.49 21.07 57.64 20.86 62.54 19.64 C 63.55 19.22 65.17 25.07 64.81 25.07 C 68.01 25.11 65.26 33.03 63.78 32.32 C 62.98 32.67 62.98 35.65 58.24 39.3 L 58.65 42.93 C 58.9 44.84 49.23 45.78 48.98 42.72 Z">
      <title>Head</title>
    </path>
    <g style="">
      <title>Glasses</title>
      <path style="stroke: rgb(0, 0, 0); fill: rgb(150, 205, 237);" d="M 44.13 26.62 C 44.13 23.82 44.58 23.75 48.24 23.75 C 53.22 23.75 52.95 23.87 52.95 26.51 C 52.95 29.66 51.46 29.98 48.13 29.98 C 45.35 29.98 44.13 30.19 44.13 26.62 Z">
        <title>Glass Right</title>
      </path>
      <path style="stroke: rgb(0, 0, 0); fill: rgb(150, 205, 237);" d="M 55.19 27.19 C 55.19 29.99 55.64 30.06 59.3 30.06 C 64.28 30.06 64.01 29.94 64.01 27.3 C 64.01 24.15 62.52 23.83 59.19 23.83 C 56.41 23.83 55.19 23.62 55.19 27.19 Z" transform="matrix(-1, 0, 0, -1, 119.202587, 53.887672)">
        <title>Glass Left</title>
      </path>
      <path style="fill: rgb(216, 216, 216); stroke: rgb(0, 0, 0);" d="M 53.27 25.37 L 55.34 25.39"/>
      <path style="fill: rgb(216, 216, 216); stroke: rgb(0, 0, 0);" d="M 44.02 25.37 L 42.5 25.1"/>
      <path style="fill: rgb(216, 216, 216); stroke: rgb(0, 0, 0);" d="M 63.89 25.61 L 65.25 25.31"/>
    </g>
    <path style="fill: rgb(85, 37, 0);" d="M 45.88 19.57 C 44.13 21.04 43 24.61 43 24.61 C 43 24.61 42.85 17.77 44.97 15.24 C 48.7 10.78 56.76 11.38 58.94 12.43 L 57.12 13.92 C 59.73 12.57 63.09 15.38 64.39 18.6 C 65.6 21.59 64.77 24.95 64.77 24.95 L 61.87 20.14 C 61.9 20.15 51.52 23.08 45.88 19.57 Z">
      <title>Hair</title>
    </path>
  </g>
  <g style="" transform="matrix(1, 0, 0, 1, -18.500734, -6.957537)">
    <title>Sweater</title>
    <path style="fill: rgb(47, 134, 66);" d="M 34.04 50.46 C 34.77 47.72 33.96 41.48 49.22 42.71 C 48.69 44.11 54.87 45.92 59.02 42.82 C 73.92 41.41 73.14 48.87 73.8 50.49 L 34.04 50.46 Z">
      <title>shirt</title>
    </path>
    <path style="fill: rgb(88, 88, 88);" d="M 61.1 43.49 L 60.58 42.72 L 58.71 42.63 C 57.77 44.59 50.36 45.43 49.15 42.62 C 48.32 42.62 46.94 42.63 47.04 42.64 L 46.71 43.49 L 49.52 47.3 L 58.16 47.38 C 58.28 47.66 61.1 43.49 61.1 43.49 Z">
      <title>V</title>
    </path>
  </g>
  <g transform="matrix(1, 0, 0, 1, -18.500734, -6.957537)">
    <title>PC</title>
    <path style="fill: rgb(71, 66, 66);" d="M 36.17 47.28 C 36.17 47.28 70.27 47.24 71.84 47.24 C 72.45 47.24 73.04 47.8 73.04 48.57 C 73.04 50.25 72.87 69.85 72.87 71.42 C 72.87 72.14 72.28 72.63 71.32 72.63 C 68.8 72.63 43.99 72.58 37.74 72.58 C 36.3 72.58 35.05 72.77 35.05 71.4 C 35.05 63.68 35.08 48.29 35.08 48.29 C 35.08 47.72 35.55 47.28 36.17 47.28 Z">
      <title>PC-border</title>
    </path>
    <path style="fill: rgb(9, 131, 224);" d="M 38.28 48.32 C 38.28 48.32 68.94 48.29 70.34 48.29 C 70.9 48.29 71.42 48.8 71.42 49.51 C 71.42 51.07 71.27 69.11 71.27 70.54 C 71.27 71.22 70.74 71.67 69.87 71.67 C 67.62 71.67 45.3 71.62 39.68 71.62 C 38.39 71.62 37.27 71.8 37.27 70.53 C 37.27 63.43 37.29 49.25 37.29 49.25 C 37.29 48.73 37.72 48.32 38.28 48.32 Z">
      <title>PC-screen</title>
    </path>
    <text transform="matrix(0.760706, 0, 0, 0.760706, 42.522675, 7.87961)" style="fill: rgb(2, 102, 47); font-family: &quot;Roboto Slab&quot;; font-size: 1.97185px; font-weight: 900; text-anchor: middle; white-space: pre;"><tspan x="15.77" y="56.23">01101000 01101001 01110010 01100101 00100000 </tspan><tspan x="15.77" dy="1.5em">​</tspan><tspan>               01101101 01100101 00100001</tspan></text>
    <text transform="matrix(0.760706, 0, 0, 0.760706, 42.173271, 13.446514)" style="fill: rgb(2, 102, 47); font-family: &quot;Roboto Slab&quot;; font-size: 1.97185px; font-weight: 900; text-anchor: middle; white-space: pre;"><tspan x="15.77" y="56.23">01101000 01101001 01110010 01100101 00100000 </tspan><tspan x="15.77" dy="1.5em">​</tspan><tspan>               01101101 01100101 00100001</tspan></text>
    <text transform="matrix(0.760706, 0, 0, 0.760706, 41.462997, 19.299326)" style="fill: rgb(2, 102, 47); font-family: &quot;Roboto Slab&quot;; font-size: 1.97185px; font-weight: 900; text-anchor: middle; white-space: pre;"><tspan x="15.77" y="56.23">01101000 01101001 01110010 01100101 00100000 </tspan><tspan x="15.77" dy="1.5em">​</tspan><tspan>               01101101 01100101 00100001</tspan></text>
    <text transform="matrix(0.760706, 0, 0, 0.760706, 42.390572, 24.976477)" style="fill: rgb(2, 102, 47); font-family: &quot;Roboto Slab&quot;; font-size: 1.97185px; font-weight: 900; text-anchor: middle; white-space: pre;"><tspan x="15.77" y="56.23">01101000 01101001 01110010 01100101 00100000 </tspan><tspan x="15.77" dy="1.5em">​</tspan><tspan>               01101101 01100101 00100001</tspan></text>
  </g>
  <g transform="matrix(1, 0, 0, 1, -18.500734, -6.957537)">
    <title>Hand Right</title>
    <path style="fill: rgb(253, 184, 120);" d="M 32 51 C 30.41 56.22 31.28 62.7 32.96 64.08 C 33.95 64.89 39.93 66.03 41 64 C 41 62 39.16 61.96 39.16 61.96 C 39.81 61.82 42.17 62.46 42.16 60.28 C 42.15 58.1 39.8 58.68 39.8 58.68 C 39.8 58.68 43 59 43 57 C 43 55 40.16 55.56 40.16 55.56 C 40.37 55.64 42.26 54.81 42.08 53.56 C 41.71 50.94 34.81 53.06 35 52 C 35.19 50.94 34.96 50.36 34.96 50.36 C 35.02 50.34 33.11 50.07 32 51 Z"/>
    <path style="fill: rgb(253, 184, 120);" d="M 37 45.09 C 36.21 45.26 35.74 47.21 35.99 47.29 L 39.15 47.41 C 38.96 46.36 38.13 44.84 37 45.09 Z"/>
  </g>
  <g transform="matrix(-1, 0, 0, 1, 89.52285, -6.99348)">
    <title>Hand Left</title>
    <path style="fill: rgb(253, 184, 120);" d="M 32 51 C 30.41 56.22 31.28 62.7 32.96 64.08 C 33.95 64.89 39.93 66.03 41 64 C 41 62 39.16 61.96 39.16 61.96 C 39.81 61.82 42.17 62.46 42.16 60.28 C 42.15 58.1 39.8 58.68 39.8 58.68 C 39.8 58.68 43 59 43 57 C 43 55 40.16 55.56 40.16 55.56 C 40.37 55.64 42.26 54.81 42.08 53.56 C 41.71 50.94 34.81 53.06 35 52 C 35.19 50.94 34.96 50.36 34.96 50.36 C 35.02 50.34 33.11 50.07 32 51 Z"/>
    <path style="fill: rgb(253, 184, 120);" d="M 37 45.09 C 36.21 45.26 35.74 47.21 35.99 47.29 L 39.15 47.41 C 38.96 46.36 38.13 44.84 37 45.09 Z"/>
  </g>
</svg>